#!OML:ASF X:\für Bonn\!DataBase\2005_08_12_Daniel\c3d\Daniel.ASF
:FULLY-SPECIFIED
:DEGREES
1
root 2.71815 17.4439 16.737 -8.6714 -355.603 360.972
lowerback 10.7762 -2.38733 -0.691138
upperback 1.66217 -3.34079 -1.92742
thorax -4.37716 -1.65375 -1.13778
lowerneck 0.784328 3.08668 -4.07815
upperneck 6.96795 4.33344 -2.74601
head 2.01906 1.99387 -0.112691
rclavicle -3.60297e-015 3.57812e-015
rhumerus -38.2221 -10.8349 -87.0626
rradius 21.6021
rwrist 18.8488
rhand -17.5089 13.956
rfingers 7.12502
rthumb 8.74429 -15.8428
lclavicle -3.60297e-015 3.57812e-015
lhumerus -33.1597 21.5375 77.6065
lradius 31.1122
lwrist -15.5984
lhand -14.0841 -5.66448
lfingers 7.12502
lthumb 12.048 23.9687
rfemur -5.22781 2.90837 12.4334
rtibia 39.4264
rfoot -15.1522 0.990178
rtoes -13.5503
lfemur -9.57134 -10.3281 -21.7464
ltibia 36.0913
lfoot -16.2065 0.833184
ltoes -10.5048
2
root 2.71329 17.4479 16.803 -8.65264 -355.494 360.949
lowerback 10.706 -2.43749 -0.704141
upperback 1.66484 -3.40722 -1.91963
thorax -4.33536 -1.6866 -1.11585
lowerneck 0.798436 3.06081 -4.07312
upperneck 6.96648 4.29746 -2.73909
head 2.01621 1.97638 -0.112123
rclavicle 1.26787e-014 -3.57812e-015
rhumerus -38.3843 -10.4892 -87.309
rradius 21.9639
rwrist 18.1713
rhand -17.567 13.8542
rfingers 7.12502
rthumb 8.68825 -15.947
lclavicle 1.26787e-014 -3.57812e-015
lhumerus -32.7777 21.6677 77.7073
lradius 31.2314
lwrist -15.6139
lhand -14.2855 -6.1252
lfingers 7.12502
lthumb 11.8538 23.5193
rfemur -5.0073 3.30666 12.5842
rtibia 37.8275
rfoot -15.5744 0.145153
rtoes -14.3178
lfemur -9.3413 -10.3746 -21.7536
ltibia 36.0809
lfoot -16.4246 0.837347
ltoes -10.6346
3
root 2.70679 17.4559 16.8686 -8.6349 -355.394 360.937
lowerback 10.6278 -2.48149 -0.738595
upperback 1.67316 -3.46771 -1.91364
thorax -4.28192 -1.71625 -1.08529
lowerneck 0.797495 3.03195 -4.08897
upperneck 6.96263 4.25698 -2.70661
head 2.01421 1.95664 -0.0999249
rclavicle -3.4017e-014 -3.06128e-014
rhumerus -38.5685 -10.1087 -87.5664
rradius 22.35
rwrist 17.51
rhand -17.5995 13.7365
rfingers 7.12502
rthumb 8.65681 -16.066
lclavicle -3.4017e-014 -3.06128e-014
lhumerus -32.402 21.8381 77.7935
lradius 31.3424
lwrist -15.6062
lhand -14.4653 -6.50191
lfingers 7.12502
lthumb 11.6805 23.1525
rfemur -4.79473 3.72931 12.7299
rtibia 36.3401
rfoot -15.9414 -0.806141
rtoes -15.1634
lfemur -9.06087 -10.4209 -21.768
ltibia 35.9932
lfoot -16.6158 0.838419
ltoes -10.8128
4
root 2.69988 17.4659 16.9333 -8.62322 -355.263 360.937
lowerback 10.5387 -2.5341 -0.793088
upperback 1.6919 -3.54112 -1.90277
thorax -4.2102 -1.75209 -1.03757
lowerneck 0.798565 3.00353 -4.06913
upperneck 6.95186 4.2194 -2.72619
head 2.01159 1.93823 -0.109937
rclavicle 9.2994e-015 3.97569e-016
rhumerus -38.7064 -9.73174 -87.7962
rradius 22.6634
rwrist 16.8773
rhand -17.6429 13.6306
rfingers 7.12502
rthumb 8.61498 -16.1736
lclavicle 9.2994e-015 3.97569e-016
lhumerus -32.0422 22.0084 77.8812
lradius 31.4515
lwrist -15.5624
lhand -14.6126 -6.852
lfingers 7.12502
lthumb 11.5384 22.8104
rfemur -4.5567 4.16657 12.8638
rtibia 34.9723
rfoot -16.1531 -1.89373
rtoes -15.8571
lfemur -8.74873 -10.4668 -21.7974
ltibia 35.8426
lfoot -16.7665 0.827405
ltoes -11.11
5
root 2.69168 17.4751 16.9981 -8.62102 -355.133 360.938
lowerback 10.4521 -2.58204 -0.838576
upperback 1.6989 -3.60843 -1.91044
thorax -4.15366 -1.78516 -1.0148
lowerneck 0.817718 2.97947 -4.00026
upperneck 6.97054 4.18755 -2.74965
head 2.01643 1.92323 -0.129249
rclavicle 4.18939e-014 2.26615e-014
rhumerus -38.8788 -9.37416 -88.0406
rradius 22.9634
rwrist 16.2629
rhand -17.6566 13.5716
rfingers 7.12502
rthumb 8.6017 -16.2332
lclavicle 4.18939e-014 2.26615e-014
lhumerus -31.7117 22.2409 77.889
lradius 31.5099
lwrist -15.6194
lhand -14.7469 -7.10909
lfingers 7.12502
lthumb 11.4089 22.5605
rfemur -4.27336 4.62206 13.0093
rtibia 33.7282
rfoot -16.2331 -3.03871
rtoes -16.334
lfemur -8.40761 -10.5195 -21.8218
ltibia 35.6581
lfoot -16.9052 0.823294
ltoes -11.2381
6
root 2.68266 17.4833 17.0624 -8.62562 -355.016 360.951
lowerback 10.3452 -2.61542 -0.905704
upperback 1.72375 -3.65753 -1.91168
thorax -4.06505 -1.80908 -0.977425
lowerneck 0.830048 2.95048 -3.96732
upperneck 6.96505 4.14744 -2.7479
head 2.01326 1.90438 -0.134958
rclavicle -1.36416e-014 -2.8625e-014
rhumerus -39.0148 -9.00429 -88.2558
rradius 23.2387
rwrist 15.6257
rhand -17.638 13.5691
rfingers 7.12502
rthumb 8.61972 -16.2349
lclavicle -1.36416e-014 -2.8625e-014
lhumerus -31.3639 22.496 77.9278
lradius 31.5545
lwrist -15.6534
lhand -14.8458 -7.27538
lfingers 7.12502
lthumb 11.3135 22.3995
rfemur -3.95622 5.06044 13.1447
rtibia 32.5979
rfoot -16.2505 -4.05893
rtoes -16.3606
lfemur -8.05419 -10.584 -21.8607
ltibia 35.4738
lfoot -17.0607 0.830179
ltoes -11.4763
7
root 2.67292 17.4895 17.1259 -8.65051 -354.871 360.962
lowerback 10.2533 -2.66294 -0.9871
upperback 1.74814 -3.72665 -1.90327
thorax -3.98388 -1.84268 -0.918861
lowerneck 0.871589 2.93466 -3.91197
upperneck 6.94784 4.12408 -2.77134
head 2.00208 1.89442 -0.152626
rclavicle -3.60173e-014 -9.54166e-015
rhumerus -39.1296 -8.6783 -88.4323
rradius 23.4634
rwrist 15.1374
rhand -17.6367 13.5667
rfingers 7.12502
rthumb 8.62099 -16.2373
lclavicle -3.60173e-014 -9.54166e-015
lhumerus -31.0449 22.7928 77.9546
lradius 31.5797
lwrist -15.7491
lhand -14.9748 -7.29404
lfingers 7.12502
lthumb 11.189 22.3876
rfemur -3.58208 5.48705 13.2915
rtibia 31.5752
rfoot -16.3315 -5.07693
rtoes -16.1494
lfemur -7.69741 -10.6518 -21.8962
ltibia 35.3108
lfoot -17.2091 0.814104
ltoes -11.5954
8
root 2.66035 17.4931 17.1906 -8.7079 -354.688 360.958
lowerback 10.1583 -2.71825 -1.0637
upperback 1.79126 -3.80543 -1.90817
thorax -3.8826 -1.88143 -0.876449
lowerneck 0.891724 2.91977 -3.80205
upperneck 6.94159 4.10479 -2.82241
head 1.99997 1.88675 -0.187406
rclavicle 1.76111e-014 4.37326e-015
rhumerus -39.1824 -8.44954 -88.5987
rradius 23.6005
rwrist 14.77
rhand -17.5965 13.5911
rfingers 7.12502
rthumb 8.65972 -16.2113
lclavicle 1.76111e-014 4.37326e-015
lhumerus -30.7136 23.0393 77.9729
lradius 31.6124
lwrist -15.7884
lhand -15.0388 -7.18087
lfingers 7.12502
lthumb 11.1274 22.5041
rfemur -3.13406 5.88841 13.4697
rtibia 30.6583
rfoot -16.5232 -6.05941
rtoes -15.7625
lfemur -7.32819 -10.7193 -21.9168
ltibia 35.1852
lfoot -17.3876 0.76984
ltoes -11.8239
9
root 2.64625 17.4946 17.2558 -8.76359 -354.454 360.967
lowerback 10.0318 -2.79076 -1.1875
upperback 1.84502 -3.9101 -1.89651
thorax -3.74852 -1.93273 -0.789465
lowerneck 0.894197 2.91515 -3.69462
upperneck 6.95131 4.10237 -2.89915
head 2.00674 1.88626 -0.229132
rclavicle -2.4084e-014 -7.55382e-015
rhumerus -39.1816 -8.25259 -88.7011
rradius 23.6667
rwrist 14.5193
rhand -17.4869 13.6849
rfingers 7.12502
rthumb 8.76549 -16.1131
lclavicle -2.4084e-014 -7.55382e-015
lhumerus -30.3965 23.3447 78.0106
lradius 31.6521
lwrist -15.8587
lhand -15.1016 -6.90125
lfingers 7.12502
lthumb 11.0667 22.787
rfemur -2.64163 6.239 13.642
rtibia 29.8361
rfoot -16.7815 -7.00366
rtoes -15.1991
lfemur -6.98435 -10.8409 -21.9499
ltibia 35.0985
lfoot -17.5679 0.714111
ltoes -12.0007
10
root 2.6333 17.4907 17.3179 -8.87232 -354.269 360.986
lowerback 9.96617 -2.84122 -1.28335
upperback 1.90272 -3.98446 -1.90749
thorax -3.64701 -1.96935 -0.742913
lowerneck 0.957388 2.90359 -3.57787
upperneck 6.92583 4.08501 -2.9595
head 1.99115 1.88044 -0.268798
rclavicle 1.25483e-015 -1.86858e-014
rhumerus -39.1842 -8.05569 -88.8281
rradius 23.6912
rwrist 14.2693
rhand -17.4344 13.7611
rfingers 7.12502
rthumb 8.81621 -16.0347
lclavicle 1.25483e-015 -1.86858e-014
lhumerus -30.1201 23.6106 78.0346
lradius 31.7271
lwrist -15.9528
lhand -15.1248 -6.54207
lfingers 7.12502
lthumb 11.0443 23.1474
rfemur -2.07802 6.55661 13.8056
rtibia 29.1099
rfoot -17.0921 -7.83144
rtoes -14.6727
lfemur -6.59231 -10.9983 -22.0147
ltibia 35.0398
lfoot -17.7822 0.732334
ltoes -12.123
11
root 2.62207 17.4864 17.3756 -9.03847 -354.147 361.026
lowerback 9.98817 -2.8765 -1.39647
upperback 1.96788 -4.04191 -1.91229
thorax -3.5843 -1.99712 -0.67836
lowerneck 1.02295 2.91585 -3.4598
upperneck 6.89189 4.10055 -3.04402
head 1.97303 1.89073 -0.315867
rclavicle -1.33061e-014 -1.78906e-014
rhumerus -39.1639 -7.9264 -88.8948
rradius 23.6868
rwrist 14.1671
rhand -17.3267 13.8171
rfingers 7.12502
rthumb 8.92009 -15.9743
lclavicle -1.33061e-014 -1.78906e-014
lhumerus -29.8765 23.8351 78.0851
lradius 31.8472
lwrist -15.9786
lhand -15.1491 -6.00788
lfingers 7.12502
lthumb 11.021 23.6828
rfemur -1.43293 6.82617 13.9447
rtibia 28.4744
rfoot -17.4433 -8.47121
rtoes -14.0992
lfemur -6.14417 -11.1364 -22.1215
ltibia 34.9815
lfoot -17.9908 0.815521
ltoes -12.292
